name C:\Users\u0101727\Documents\MyRepositories\paper-ad\predictivesimulations_2d/Results/PredSim_2D/IK_c24.mot
datacolumns 11
datarows 17
range 0.63317514 0.78667214
endheader
time	pelvis_tilt	pelvis_tx	pelvis_ty	hip_flexion_l	hip_flexion_r	knee_angle_l	knee_angle_r	ankle_angle_l	ankle_angle_r	lumbar_extension	
          0.63317514	        -15.02329850	          0.85494898	          0.89993943	         25.66456642	         11.34239680	        -10.65276568	        -40.88718395	          8.49675595	         -0.30735039	         10.26761145	
          0.64276870	        -15.04038410	          0.86692103	          0.90137710	         24.74559558	         12.61543486	        -10.40539489	        -41.78385944	          8.59974632	          0.66874419	         10.22922901	
          0.65236226	        -15.05499539	          0.87883723	          0.90257116	         23.81133279	         13.92091063	        -10.13314204	        -42.57261790	          8.74357870	          1.72480556	         10.18686490	
          0.66195583	        -15.06711531	          0.89070518	          0.90352484	         22.86622811	         15.25382944	         -9.84385392	        -43.24531573	          8.92238583	          2.84316790	         10.14083493	
          0.67154939	        -15.07686566	          0.90253217	          0.90424873	         21.91419246	         16.60823082	         -9.54460443	        -43.79442014	          9.12970413	          4.00602196	         10.09161154	
          0.68114295	        -15.08441141	          0.91432449	          0.90475974	         20.95937613	         17.97827331	         -9.24291704	        -44.21225026	          9.35787102	          5.19551918	         10.03962778	
          0.69073651	        -15.08989355	          0.92608767	          0.90507858	         20.00634968	         19.35845503	         -8.94665547	        -44.49102885	          9.59881859	          6.39383503	          9.98522604	
          0.70033008	        -15.09345760	          0.93782772	          0.90522663	         19.05990503	         20.74230840	         -8.66416949	        -44.62378384	          9.84458846	          7.58317088	          9.92878432	
          0.70992364	        -15.09532203	          0.94955169	          0.90522414	         18.12330924	         22.12290198	         -8.40113790	        -44.60487866	         10.08782155	          8.74585088	          9.87083503	
          0.71951720	        -15.09580199	          0.96126793	          0.90508919	         17.19739329	         23.49334160	         -8.15888531	        -44.43025670	         10.32185216	          9.86450508	          9.81211900	
          0.72911076	        -15.09517980	          0.97298525	          0.90483729	         16.28354875	         24.84573501	         -7.94017910	        -44.09794272	         10.53987672	         10.92239509	          9.75337399	
          0.73870433	        -15.09369964	          0.98471184	          0.90448159	         15.38393026	         26.17211452	         -7.74864600	        -43.60697125	         10.73579253	         11.90407983	          9.69522053	
          0.74829789	        -15.09160224	          0.99645678	          0.90403280	         14.50011013	         27.46369742	         -7.58729355	        -42.96035302	         10.90495436	         12.79616274	          9.63839134	
          0.75789145	        -15.08914432	          1.00822856	          0.90350007	         13.63303769	         28.71241953	         -7.45822051	        -42.16268326	         11.04438363	         13.58840789	          9.58358272	
          0.76748501	        -15.08658881	          1.02003376	          0.90289154	         12.78358370	         29.91212178	         -7.36250138	        -41.21827362	         11.15293458	         14.27473173	          9.53127720	
          0.77707858	        -15.08417426	          1.03187872	          0.90221378	         11.95243387	         31.05708941	         -7.30177488	        -40.13385241	         11.23132521	         14.85353137	          9.48191968	
          0.78667214	        -15.08212172	          1.04376779	          0.90147219	         11.13991362	         32.14438498	         -7.27695305	        -38.91489844	         11.28235916	         15.32763110	          9.43569869	
